# xmcd
#
# Track frame offsets:
#	150
#	13139
#	27501
#	51007
#	64776
#	84391
#	102997
#	119491
#	142246
#	160789
#	188971
#	222206
#	246748
#	307803
#
# Disc length: 4649 seconds
# Revision: 1
# Processed by: cddbd v1.5.2PL0 Copyright (c) Steve Scherf et al.
# Submitted via: dBpowerAMP V12.0
#
DISCID=cb12270e
DTITLE=Various Artist - The Anthology [4 CD Deluxe Box Set]
DYEAR=2008
DGENRE=Pop/Rock
TTITLE0=Peter Green with Fleetwood Mac - Black Magic Woman
TTITLE1=Peter Green with Fleetwood Mac - Albatross
TTITLE2=Peter Green with Otis Spann - Ain't Nobody's Business
TTITLE3=Peter Green with Otis Spann - Someday Baby
TTITLE4=Peter Green with Fleetwood Mac - Watch Out! (Blues Jam At Chess)
TTITLE5=Peter Green with Fleetwood Mac - Ooh Baby (Blues Jam At Chess)
TTITLE6=Peter Green with Walter Horton, Otis Spann and S.P. Leary - Horton's Boogie Woogie - Take One (Blues Jam At Chess)
TTITLE7=Peter Green with Fleetwood Mac - Love That Burns
TTITLE8=Peter Green with Fleetwood Mac - First Train Home
TTITLE9=Peter Green with Fleetwood Mac - Need Your Love So Bad
TTITLE10=Peter Green with Peter Bardens - Don't Goof with the Spook
TTITLE11=Peter Green with Peter Bardens - The Answer
TTITLE12=Peter Green - Homage to the God of Light
TTITLE13=Peter Green with Fleetwood Mac - Oh Well, Part 1 and Part 2
EXTD=
EXTT0=
EXTT1=
EXTT2=
EXTT3=
EXTT4=
EXTT5=
EXTT6=
EXTT7=
EXTT8=
EXTT9=
EXTT10=
EXTT11=
EXTT12=
EXTT13=
PLAYORDER=
